<?xml version="1.0" encoding="UTF-8"?>
<svg id="Layer_1" xmlns="http://www.w3.org/2000/svg" version="1.1" viewBox="0 0 337.9 544.6">
  <!-- Generator: Adobe Illustrator 29.4.0, SVG Export Plug-In . SVG Version: 2.1.0 Build 152)  -->
  <defs>
    <style>
      .st0 {
        fill: #15803d;
      }
    </style>
  </defs>
  <path class="st0" d="M168.1,148.5c2.6.4,1.5-.2,2.1-1.4,8.2-18,7.2-34.1,12.6-52.4C200,36.7,253.1,4.9,311.6,1.5c5.1-.3,17.5-.8,22,0,3.5.7,2.7,4.5,2.5,7.5-3.8,62.1-43.5,105.4-102.8,120.2-13.5,3.4-27.2,4.2-40.8,7.2-16.8,25.7-17.2,57.4-14,87.1,6.1,2.6,12.5,2.7,18.8,5.2,11.9,4.8,21.2,15.2,28.7,25.3,11,.8,20.6-.1,31.3,3.7,10,3.6,16.5,11.2,25.2,16.8,13.8,1.8,33.7-2.4,46.8.2,4.3.9,7.3,4.5,8.6,8.5l-10.1,64.5c-1.2,4.4-5.2,6.6-9.5,7.5-2.7.6-7-.8-8.1,1.9l-34.7,175.3c-2,9.6-10.6,10.5-19,11-57.9,3.7-119.8-2.9-178.1,0-6.8-.6-13.3-3.8-15.2-10.8l-35.3-177.2c-7.9.5-16.2,0-18.7-8.8C8.3,327.7.3,304.5,0,286c-.3-15.5,21.1-12.5,31.6-12.5h14.9c2.9,0,8.7,1.5,10.9.7,3.2-1.1,9.8-7.9,13.5-10.3,12.5-7.8,26-8.8,40.5-8.5,12.8-16.5,29.4-27.7,50.6-29.9,1-6.1-.8-12.6-1-18.4-.6-22.1,1.2-32.6-6.9-54.1-1.6-4.1-5.8-15.9-9.8-17.2C71.2,129.1,9.6,91.8,3.1,13,2.7,8.6.6,1.2,6.5.5,25.8-1.9,60.8,4.9,79.1,12c39.9,15.6,71.3,52.2,79.6,94.4,1.5,7.7,1.3,16.1,2.7,23.3,1.1,6,6.1,12.4,6.8,18.7h0ZM142.1,107.5c-10.1-41.6-37.8-73.1-79.2-85.3-14.5-4.2-28.8-5.5-43.8-6.7,2.9,15.7,6.2,31.4,13.8,45.7,18.7,34.7,59.7,52.2,97.2,57.3-15.3-19-32.6-37.4-50.5-54-2.9-2.8-6.8-5.4-9.9-8.2-.8-.7-2.9-1.6-1.2-2.8,29.6,10.5,52.9,31,73.5,54h.1ZM319.1,16.5c-41.8.6-82.5,15.5-106,51.5-8,12.2-13.3,25.7-18,39.5l19-19.5c12.5-11.4,39.2-29.6,55.5-33.5,2-.5,1.7.4.5,1.5-12.2,11.1-25.4,21.2-37,33l-26,29.5c57-4.4,107.7-42,112-102h0ZM256.1,274.5c-10.8-9.2-25.1-5.2-38-6.5-8.8-13.9-18.2-24.8-35.5-27.5l-1.1,2c2.6,7.9,8.2,25.5-6.7,19.7-9-3.5-7-12.4-9.6-20.2-10.8-1.6-22.9,4.1-31.1,10.9-3.2,2.6-13.3,14.6-15.7,15.3-3.5,1-9.7-.2-13.8.2-6,.6-15,2.1-19.5,6h171ZM322.1,289.5H16.1l8.6,50.1h289.4l8-50.1ZM162.1,355.5H43.1l35.1,170.9,181.4.2,35.5-171.1h-116.5c-5.5,10.4,4.1,21.9,12.8,27.2,18.4,11.2,29.3,9.2,45.7,28.3,2.9,3.4,13.7,15.9,7.8,18.7-4.9,2.3-7.9-5.8-10.7-8.8-1.2-1.3-8.8-9.5-10-8.5,4.3,4.7,5.9,31,2,33.5-2.6,1.8-7.4.5-8-3.1-1.1-5.9.4-11.5-1.3-18.7-5.7-24-24.8-20.9-40.7-34.8,3.9,31,29.7,51.6,31.9,83.6.4,6.1.9,23.4-8.9,17.7-.8-11.5-.6-24-6.5-34.3-1.8,4.3-8,19.5-13.8,17.8s1.7-11.3,3-15.7c6.5-21.9-9.9-27.7-14.7-47.2l-16.2,26.3c-5.5,11.4-6.2,21.9-2.8,34.1,1.2,4.3,6.5,12.2,6.8,14.3.8,4.7-3.5,6.6-7.4,4.3-9.3-5.4-15.1-34.9-11.5-45-3.2,2-5.7,5.6-7.8,8.7-2.2,3.3-7.7,16.5-8.7,17.3-1.5,1.3-4.9,1.7-6.1,0-2.8-4.1,3.1-17.6,5.4-21.7,7-12.9,18.2-19,26.4-30.6,6.3-9,9.7-18.6,13.8-28.7-3.5,1.1-6.2,3.4-9.7,4.8-14.7,5.7-25.3,6.3-36.2,19.8-3.4,4.2-7.5,16-13.3,14.3-8.9-2.5,1.5-18.3,4.5-22.2,14.6-19,23.1-17.7,42.5-26.5,12.7-5.8,14.2-11.6,15.3-25.2h0v.3Z"/>
</svg>